<svg width="1088" height="62" viewBox="0 0 1088 62" fill="none" xmlns="http://www.w3.org/2000/svg">
<path d="M4.41 22H6.606V16.69L11.007 9.04H8.478L5.508 14.206L2.529 9.04H0L4.41 16.69V22ZM13.5405 22.27C14.3145 22.27 14.9715 22.144 15.5115 21.892C16.0575 21.634 16.5375 21.235 16.9515 20.695V22H18.8505V16.033C18.8505 15.613 18.8325 15.226 18.7965 14.872C18.7605 14.512 18.6555 14.161 18.4815 13.819C18.1635 13.177 17.6745 12.715 17.0145 12.433C16.3605 12.151 15.6015 12.01 14.7375 12.01C13.5975 12.01 12.6885 12.259 12.0105 12.757C11.3325 13.255 10.8735 13.915 10.6335 14.737L12.6135 15.358C12.7755 14.86 13.0605 14.509 13.4685 14.305C13.8765 14.101 14.2995 13.999 14.7375 13.999C15.3975 13.999 15.8835 14.134 16.1955 14.404C16.5075 14.668 16.6845 15.079 16.7265 15.637C15.8745 15.763 15.0825 15.886 14.3505 16.006C13.6245 16.12 13.0065 16.261 12.4965 16.429C11.7285 16.693 11.1675 17.068 10.8135 17.554C10.4595 18.034 10.2825 18.628 10.2825 19.336C10.2825 19.87 10.4055 20.359 10.6515 20.803C10.9035 21.247 11.2725 21.604 11.7585 21.874C12.2445 22.138 12.8385 22.27 13.5405 22.27ZM13.9725 20.542C13.4625 20.542 13.0725 20.425 12.8025 20.191C12.5385 19.957 12.4065 19.663 12.4065 19.309C12.4065 18.991 12.5085 18.733 12.7125 18.535C12.9225 18.337 13.2135 18.169 13.5855 18.031C13.9275 17.917 14.3385 17.818 14.8185 17.734C15.2985 17.644 15.9255 17.539 16.6995 17.419C16.6935 17.647 16.6785 17.902 16.6545 18.184C16.6305 18.46 16.5735 18.709 16.4835 18.931C16.4115 19.153 16.2705 19.39 16.0605 19.642C15.8565 19.894 15.5805 20.107 15.2325 20.281C14.8845 20.455 14.4645 20.542 13.9725 20.542ZM20.2936 22H28.6006V20.101H23.6866L28.8166 12.586V12.28H20.8156V14.179H25.4416L20.2936 21.703V22ZM30.9713 22H33.1403V12.28H30.9713V22ZM36.0162 22H38.1852V8.77H36.0162V22ZM41.0611 22H43.2301V12.28H41.0611V22ZM45.908 22H48.095V16.015C48.095 15.409 48.26 14.917 48.59 14.539C48.926 14.161 49.37 13.972 49.922 13.972C50.492 13.972 50.942 14.161 51.272 14.539C51.602 14.917 51.767 15.445 51.767 16.123V22H53.927V16.015C53.927 15.373 54.101 14.872 54.449 14.512C54.803 14.152 55.241 13.972 55.763 13.972C56.321 13.972 56.765 14.161 57.095 14.539C57.431 14.911 57.599 15.43 57.599 16.096V22H59.768V15.547C59.768 14.491 59.48 13.642 58.904 13C58.334 12.358 57.512 12.037 56.438 12.037C55.808 12.037 55.232 12.175 54.71 12.451C54.188 12.727 53.777 13.105 53.477 13.585C53.219 13.111 52.853 12.736 52.379 12.46C51.905 12.178 51.326 12.037 50.642 12.037C50.06 12.037 49.523 12.154 49.031 12.388C48.545 12.616 48.143 12.931 47.825 13.333V12.28H45.908V22ZM65.719 22H67.888V15.952L73.351 22H76.105L70.156 15.394L75.727 9.04H73.063L67.888 15.052V9.04H65.719V22ZM80.0913 22.27C80.8653 22.27 81.5223 22.144 82.0623 21.892C82.6083 21.634 83.0883 21.235 83.5023 20.695V22H85.4013V16.033C85.4013 15.613 85.3833 15.226 85.3473 14.872C85.3113 14.512 85.2063 14.161 85.0323 13.819C84.7143 13.177 84.2253 12.715 83.5653 12.433C82.9113 12.151 82.1523 12.01 81.2883 12.01C80.1483 12.01 79.2393 12.259 78.5613 12.757C77.8833 13.255 77.4243 13.915 77.1843 14.737L79.1643 15.358C79.3263 14.86 79.6113 14.509 80.0193 14.305C80.4273 14.101 80.8503 13.999 81.2883 13.999C81.9483 13.999 82.4343 14.134 82.7463 14.404C83.0583 14.668 83.2353 15.079 83.2773 15.637C82.4253 15.763 81.6333 15.886 80.9013 16.006C80.1753 16.12 79.5573 16.261 79.0473 16.429C78.2793 16.693 77.7183 17.068 77.3643 17.554C77.0103 18.034 76.8333 18.628 76.8333 19.336C76.8333 19.87 76.9563 20.359 77.2023 20.803C77.4543 21.247 77.8233 21.604 78.3093 21.874C78.7953 22.138 79.3893 22.27 80.0913 22.27ZM80.5233 20.542C80.0133 20.542 79.6233 20.425 79.3533 20.191C79.0893 19.957 78.9573 19.663 78.9573 19.309C78.9573 18.991 79.0593 18.733 79.2633 18.535C79.4733 18.337 79.7643 18.169 80.1363 18.031C80.4783 17.917 80.8893 17.818 81.3693 17.734C81.8493 17.644 82.4763 17.539 83.2503 17.419C83.2443 17.647 83.2293 17.902 83.2053 18.184C83.1813 18.46 83.1243 18.709 83.0343 18.931C82.9623 19.153 82.8213 19.39 82.6113 19.642C82.4073 19.894 82.1313 20.107 81.7833 20.281C81.4353 20.455 81.0153 20.542 80.5233 20.542ZM87.9244 22H90.0934V8.77H87.9244V22ZM92.9693 10.804H95.1383V8.815H92.9693V10.804ZM92.9693 22H95.1383V12.28H92.9693V22ZM103.531 22V20.182C102.925 20.272 102.385 20.296 101.911 20.254C101.437 20.212 101.092 20.011 100.876 19.651C100.762 19.465 100.699 19.225 100.687 18.931C100.681 18.631 100.678 18.289 100.678 17.905V13.981H103.531V12.28H100.678V9.58H98.5182V12.28H96.7542V13.981H98.5182V18.031C98.5182 18.589 98.5242 19.087 98.5362 19.525C98.5482 19.957 98.6652 20.383 98.8872 20.803C99.1392 21.265 99.5082 21.604 99.9942 21.82C100.48 22.03 101.029 22.141 101.641 22.153C102.259 22.171 102.889 22.12 103.531 22ZM109.548 22.27C110.484 22.27 111.339 22.03 112.113 21.55C112.893 21.064 113.469 20.38 113.841 19.498L111.699 18.85C111.267 19.774 110.508 20.236 109.422 20.236C108.684 20.236 108.102 20.023 107.676 19.597C107.25 19.165 106.995 18.547 106.911 17.743H113.949C114.033 16.573 113.904 15.559 113.562 14.701C113.22 13.843 112.695 13.18 111.987 12.712C111.285 12.244 110.43 12.01 109.422 12.01C108.468 12.01 107.628 12.226 106.902 12.658C106.176 13.084 105.609 13.69 105.201 14.476C104.793 15.262 104.589 16.186 104.589 17.248C104.589 18.232 104.796 19.102 105.21 19.858C105.63 20.614 106.212 21.205 106.956 21.631C107.7 22.057 108.564 22.27 109.548 22.27ZM109.512 13.909C110.184 13.909 110.7 14.086 111.06 14.44C111.426 14.788 111.657 15.343 111.753 16.105H106.965C107.223 14.641 108.072 13.909 109.512 13.909ZM119.71 22.27C120.964 22.27 121.945 21.991 122.653 21.433C123.367 20.875 123.724 20.107 123.724 19.129C123.724 18.373 123.484 17.779 123.004 17.347C122.53 16.915 121.711 16.549 120.547 16.249C119.791 16.057 119.221 15.895 118.837 15.763C118.459 15.631 118.207 15.499 118.081 15.367C117.955 15.235 117.892 15.076 117.892 14.89C117.892 14.566 118.048 14.314 118.36 14.134C118.672 13.948 119.083 13.867 119.593 13.891C120.121 13.921 120.544 14.056 120.862 14.296C121.186 14.536 121.378 14.863 121.438 15.277L123.652 14.881C123.532 14.005 123.103 13.309 122.365 12.793C121.627 12.271 120.691 12.01 119.557 12.01C118.399 12.01 117.472 12.28 116.776 12.82C116.08 13.36 115.732 14.086 115.732 14.998C115.732 15.724 115.975 16.297 116.461 16.717C116.953 17.137 117.808 17.506 119.026 17.824C119.758 18.016 120.298 18.178 120.646 18.31C121 18.436 121.231 18.565 121.339 18.697C121.447 18.829 121.501 19.006 121.501 19.228C121.501 19.588 121.357 19.873 121.069 20.083C120.781 20.287 120.379 20.389 119.863 20.389C119.269 20.389 118.774 20.251 118.378 19.975C117.988 19.699 117.739 19.321 117.631 18.841L115.417 19.183C115.579 20.161 116.035 20.92 116.785 21.46C117.535 22 118.51 22.27 119.71 22.27ZM125.876 10.804H128.045V8.815H125.876V10.804ZM125.876 22H128.045V12.28H125.876V22ZM130.722 22H132.918V17.005C132.918 16.219 133.029 15.613 133.251 15.187C133.479 14.755 133.767 14.458 134.115 14.296C134.469 14.128 134.829 14.044 135.195 14.044C135.711 14.044 136.122 14.158 136.428 14.386C136.734 14.608 136.959 14.893 137.103 15.241C137.253 15.583 137.349 15.94 137.391 16.312C137.439 16.684 137.463 17.02 137.463 17.32V22H139.659V16.573C139.659 16.345 139.638 16.042 139.596 15.664C139.56 15.286 139.476 14.887 139.344 14.467C139.212 14.047 139.008 13.651 138.732 13.279C138.456 12.901 138.081 12.595 137.607 12.361C137.139 12.121 136.548 12.001 135.834 12.001C135.132 12.001 134.514 12.124 133.98 12.37C133.452 12.61 133.011 12.94 132.657 13.36V12.28H130.722V22ZM142.188 10.804H144.357V8.815H142.188V10.804ZM142.188 22H144.357V12.28H142.188V22ZM0.36 53H2.592L3.474 50.192H8.586L9.477 53H11.709L7.623 40.04H4.446L0.36 53ZM4.113 48.167L6.012 42.137L7.938 48.167H4.113ZM13.3362 53H15.5142V48.059C15.5142 47.495 15.6162 46.994 15.8202 46.556C16.0302 46.118 16.3572 45.779 16.8012 45.539C17.1012 45.365 17.4372 45.263 17.8092 45.233C18.1812 45.197 18.5142 45.221 18.8082 45.305V43.28C18.3702 43.214 17.9202 43.223 17.4582 43.307C16.9962 43.385 16.5852 43.547 16.2252 43.793C16.0212 43.919 15.8382 44.072 15.6762 44.252C15.5142 44.426 15.3732 44.621 15.2532 44.837V43.28H13.3362V53ZM26.2226 53V51.182C25.6166 51.272 25.0766 51.296 24.6026 51.254C24.1286 51.212 23.7836 51.011 23.5676 50.651C23.4536 50.465 23.3906 50.225 23.3786 49.931C23.3726 49.631 23.3696 49.289 23.3696 48.905V44.981H26.2226V43.28H23.3696V40.58H21.2096V43.28H19.4456V44.981H21.2096V49.031C21.2096 49.589 21.2156 50.087 21.2276 50.525C21.2396 50.957 21.3566 51.383 21.5786 51.803C21.8306 52.265 22.1996 52.604 22.6856 52.82C23.1716 53.03 23.7206 53.141 24.3326 53.153C24.9506 53.171 25.5806 53.12 26.2226 53ZM34.0097 53V51.182C33.4037 51.272 32.8637 51.296 32.3897 51.254C31.9157 51.212 31.5707 51.011 31.3547 50.651C31.2407 50.465 31.1777 50.225 31.1657 49.931C31.1597 49.631 31.1567 49.289 31.1567 48.905V44.981H34.0097V43.28H31.1567V40.58H28.9967V43.28H27.2327V44.981H28.9967V49.031C28.9967 49.589 29.0027 50.087 29.0147 50.525C29.0267 50.957 29.1437 51.383 29.3657 51.803C29.6177 52.265 29.9867 52.604 30.4727 52.82C30.9587 53.03 31.5077 53.141 32.1197 53.153C32.7377 53.171 33.3677 53.12 34.0097 53ZM36.2798 53H38.4488V43.28H36.2798V53ZM41.1448 53H43.3228V48.059C43.3228 47.495 43.4248 46.994 43.6288 46.556C43.8388 46.118 44.1658 45.779 44.6098 45.539C44.9098 45.365 45.2458 45.263 45.6178 45.233C45.9898 45.197 46.3228 45.221 46.6168 45.305V43.28C46.1788 43.214 45.7288 43.223 45.2668 43.307C44.8048 43.385 44.3938 43.547 44.0338 43.793C43.8298 43.919 43.6468 44.072 43.4848 44.252C43.3228 44.426 43.1818 44.621 43.0618 44.837V43.28H41.1448V53ZM48.5142 53H50.6832V43.28H48.5142V53ZM54.6571 57.32H56.6911L62.1091 43.28H59.9401L57.3031 50.237L54.5851 43.28H52.3261L56.2591 52.928L54.6571 57.32ZM67.3928 53.27C68.3648 53.27 69.2138 53.054 69.9398 52.622C70.6658 52.184 71.2298 51.581 71.6318 50.813C72.0398 50.039 72.2438 49.148 72.2438 48.14C72.2438 47.138 72.0428 46.253 71.6408 45.485C71.2388 44.711 70.6748 44.105 69.9488 43.667C69.2228 43.229 68.3708 43.01 67.3928 43.01C66.4388 43.01 65.5988 43.226 64.8728 43.658C64.1468 44.09 63.5798 44.69 63.1718 45.458C62.7638 46.226 62.5598 47.12 62.5598 48.14C62.5598 49.142 62.7578 50.03 63.1538 50.804C63.5558 51.572 64.1198 52.175 64.8458 52.613C65.5718 53.051 66.4208 53.27 67.3928 53.27ZM67.3928 51.236C66.5588 51.236 65.9258 50.957 65.4938 50.399C65.0678 49.835 64.8548 49.082 64.8548 48.14C64.8548 47.222 65.0588 46.478 65.4668 45.908C65.8808 45.332 66.5228 45.044 67.3928 45.044C68.2448 45.044 68.8838 45.326 69.3098 45.89C69.7358 46.448 69.9488 47.198 69.9488 48.14C69.9488 49.052 69.7358 49.796 69.3098 50.372C68.8898 50.948 68.2508 51.236 67.3928 51.236ZM74.2268 53H76.4048V48.059C76.4048 47.495 76.5068 46.994 76.7108 46.556C76.9208 46.118 77.2478 45.779 77.6918 45.539C77.9918 45.365 78.3278 45.263 78.6998 45.233C79.0718 45.197 79.4048 45.221 79.6988 45.305V43.28C79.2608 43.214 78.8108 43.223 78.3488 43.307C77.8868 43.385 77.4758 43.547 77.1158 43.793C76.9118 43.919 76.7288 44.072 76.5668 44.252C76.4048 44.426 76.2638 44.621 76.1438 44.837V43.28H74.2268V53ZM85.0613 53.279C85.7633 53.279 86.3783 53.159 86.9063 52.919C87.4403 52.673 87.8843 52.34 88.2383 51.92V53H90.1553V43.28H87.9773V48.275C87.9773 49.061 87.8633 49.67 87.6353 50.102C87.4133 50.528 87.1283 50.825 86.7803 50.993C86.4323 51.155 86.0723 51.236 85.7003 51.236C85.1843 51.236 84.7733 51.125 84.4673 50.903C84.1613 50.675 83.9333 50.39 83.7833 50.048C83.6393 49.7 83.5433 49.34 83.4953 48.968C83.4533 48.596 83.4323 48.26 83.4323 47.96V43.28H81.2363V48.707C81.2363 48.935 81.2543 49.238 81.2903 49.616C81.3323 49.994 81.4193 50.393 81.5513 50.813C81.6833 51.233 81.8873 51.632 82.1633 52.01C82.4393 52.382 82.8113 52.688 83.2793 52.928C83.7533 53.162 84.3473 53.279 85.0613 53.279ZM91.7838 53H100.091V51.101H95.1768L100.307 43.586V43.28H92.3058V45.179H96.9318L91.7838 52.703V53Z" fill="white"/>
<path d="M279.741 22.27C281.037 22.27 282.147 21.988 283.071 21.424C284.001 20.854 284.712 20.062 285.204 19.048C285.702 18.034 285.951 16.858 285.951 15.52C285.951 14.176 285.702 13 285.204 11.992C284.712 10.978 284.001 10.189 283.071 9.625C282.147 9.055 281.037 8.77 279.741 8.77C278.451 8.77 277.341 9.055 276.411 9.625C275.487 10.189 274.776 10.978 274.278 11.992C273.786 13 273.54 14.176 273.54 15.52C273.54 16.858 273.786 18.034 274.278 19.048C274.776 20.062 275.487 20.854 276.411 21.424C277.341 21.988 278.451 22.27 279.741 22.27ZM279.741 20.227C278.439 20.209 277.461 19.774 276.807 18.922C276.153 18.07 275.829 16.936 275.835 15.52C275.841 14.572 275.988 13.744 276.276 13.036C276.564 12.328 276.996 11.779 277.572 11.389C278.148 10.993 278.871 10.801 279.741 10.813C281.049 10.831 282.027 11.266 282.675 12.118C283.329 12.97 283.656 14.104 283.656 15.52C283.656 16.462 283.509 17.29 283.215 18.004C282.927 18.712 282.492 19.261 281.91 19.651C281.334 20.041 280.611 20.233 279.741 20.227ZM287.922 22H290.091V8.77H287.922V22ZM295.505 22.27C296.279 22.27 296.936 22.144 297.476 21.892C298.022 21.634 298.502 21.235 298.916 20.695V22H300.815V16.033C300.815 15.613 300.797 15.226 300.761 14.872C300.725 14.512 300.62 14.161 300.446 13.819C300.128 13.177 299.639 12.715 298.979 12.433C298.325 12.151 297.566 12.01 296.702 12.01C295.562 12.01 294.653 12.259 293.975 12.757C293.297 13.255 292.838 13.915 292.598 14.737L294.578 15.358C294.74 14.86 295.025 14.509 295.433 14.305C295.841 14.101 296.264 13.999 296.702 13.999C297.362 13.999 297.848 14.134 298.16 14.404C298.472 14.668 298.649 15.079 298.691 15.637C297.839 15.763 297.047 15.886 296.315 16.006C295.589 16.12 294.971 16.261 294.461 16.429C293.693 16.693 293.132 17.068 292.778 17.554C292.424 18.034 292.247 18.628 292.247 19.336C292.247 19.87 292.37 20.359 292.616 20.803C292.868 21.247 293.237 21.604 293.723 21.874C294.209 22.138 294.803 22.27 295.505 22.27ZM295.937 20.542C295.427 20.542 295.037 20.425 294.767 20.191C294.503 19.957 294.371 19.663 294.371 19.309C294.371 18.991 294.473 18.733 294.677 18.535C294.887 18.337 295.178 18.169 295.55 18.031C295.892 17.917 296.303 17.818 296.783 17.734C297.263 17.644 297.89 17.539 298.664 17.419C298.658 17.647 298.643 17.902 298.619 18.184C298.595 18.46 298.538 18.709 298.448 18.931C298.376 19.153 298.235 19.39 298.025 19.642C297.821 19.894 297.545 20.107 297.197 20.281C296.849 20.455 296.429 20.542 295.937 20.542ZM306.911 22.27C308.165 22.27 309.146 21.991 309.854 21.433C310.568 20.875 310.925 20.107 310.925 19.129C310.925 18.373 310.685 17.779 310.205 17.347C309.731 16.915 308.912 16.549 307.748 16.249C306.992 16.057 306.422 15.895 306.038 15.763C305.66 15.631 305.408 15.499 305.282 15.367C305.156 15.235 305.093 15.076 305.093 14.89C305.093 14.566 305.249 14.314 305.561 14.134C305.873 13.948 306.284 13.867 306.794 13.891C307.322 13.921 307.745 14.056 308.063 14.296C308.387 14.536 308.579 14.863 308.639 15.277L310.853 14.881C310.733 14.005 310.304 13.309 309.566 12.793C308.828 12.271 307.892 12.01 306.758 12.01C305.6 12.01 304.673 12.28 303.977 12.82C303.281 13.36 302.933 14.086 302.933 14.998C302.933 15.724 303.176 16.297 303.662 16.717C304.154 17.137 305.009 17.506 306.227 17.824C306.959 18.016 307.499 18.178 307.847 18.31C308.201 18.436 308.432 18.565 308.54 18.697C308.648 18.829 308.702 19.006 308.702 19.228C308.702 19.588 308.558 19.873 308.27 20.083C307.982 20.287 307.58 20.389 307.064 20.389C306.47 20.389 305.975 20.251 305.579 19.975C305.189 19.699 304.94 19.321 304.832 18.841L302.618 19.183C302.78 20.161 303.236 20.92 303.986 21.46C304.736 22 305.711 22.27 306.911 22.27ZM313.077 22H315.246V12.28H313.077V22ZM321.545 22H323.714V16.528H329.852V22H332.012V9.04H329.852V14.494H323.714V9.04H321.545V22ZM337.253 22.27C338.027 22.27 338.684 22.144 339.224 21.892C339.77 21.634 340.25 21.235 340.664 20.695V22H342.563V16.033C342.563 15.613 342.545 15.226 342.509 14.872C342.473 14.512 342.368 14.161 342.194 13.819C341.876 13.177 341.387 12.715 340.727 12.433C340.073 12.151 339.314 12.01 338.45 12.01C337.31 12.01 336.401 12.259 335.723 12.757C335.045 13.255 334.586 13.915 334.346 14.737L336.326 15.358C336.488 14.86 336.773 14.509 337.181 14.305C337.589 14.101 338.012 13.999 338.45 13.999C339.11 13.999 339.596 14.134 339.908 14.404C340.22 14.668 340.397 15.079 340.439 15.637C339.587 15.763 338.795 15.886 338.063 16.006C337.337 16.12 336.719 16.261 336.209 16.429C335.441 16.693 334.88 17.068 334.526 17.554C334.172 18.034 333.995 18.628 333.995 19.336C333.995 19.87 334.118 20.359 334.364 20.803C334.616 21.247 334.985 21.604 335.471 21.874C335.957 22.138 336.551 22.27 337.253 22.27ZM337.685 20.542C337.175 20.542 336.785 20.425 336.515 20.191C336.251 19.957 336.119 19.663 336.119 19.309C336.119 18.991 336.221 18.733 336.425 18.535C336.635 18.337 336.926 18.169 337.298 18.031C337.64 17.917 338.051 17.818 338.531 17.734C339.011 17.644 339.638 17.539 340.412 17.419C340.406 17.647 340.391 17.902 340.367 18.184C340.343 18.46 340.286 18.709 340.196 18.931C340.124 19.153 339.983 19.39 339.773 19.642C339.569 19.894 339.293 20.107 338.945 20.281C338.597 20.455 338.177 20.542 337.685 20.542ZM350.603 22V20.182C349.997 20.272 349.457 20.296 348.983 20.254C348.509 20.212 348.164 20.011 347.948 19.651C347.834 19.465 347.771 19.225 347.759 18.931C347.753 18.631 347.75 18.289 347.75 17.905V13.981H350.603V12.28H347.75V9.58H345.59V12.28H343.826V13.981H345.59V18.031C345.59 18.589 345.596 19.087 345.608 19.525C345.62 19.957 345.737 20.383 345.959 20.803C346.211 21.265 346.58 21.604 347.066 21.82C347.552 22.03 348.101 22.141 348.713 22.153C349.331 22.171 349.961 22.12 350.603 22ZM355.412 22.27C356.186 22.27 356.843 22.144 357.383 21.892C357.929 21.634 358.409 21.235 358.823 20.695V22H360.722V16.033C360.722 15.613 360.704 15.226 360.668 14.872C360.632 14.512 360.527 14.161 360.353 13.819C360.035 13.177 359.546 12.715 358.886 12.433C358.232 12.151 357.473 12.01 356.609 12.01C355.469 12.01 354.56 12.259 353.882 12.757C353.204 13.255 352.745 13.915 352.505 14.737L354.485 15.358C354.647 14.86 354.932 14.509 355.34 14.305C355.748 14.101 356.171 13.999 356.609 13.999C357.269 13.999 357.755 14.134 358.067 14.404C358.379 14.668 358.556 15.079 358.598 15.637C357.746 15.763 356.954 15.886 356.222 16.006C355.496 16.12 354.878 16.261 354.368 16.429C353.6 16.693 353.039 17.068 352.685 17.554C352.331 18.034 352.154 18.628 352.154 19.336C352.154 19.87 352.277 20.359 352.523 20.803C352.775 21.247 353.144 21.604 353.63 21.874C354.116 22.138 354.71 22.27 355.412 22.27ZM355.844 20.542C355.334 20.542 354.944 20.425 354.674 20.191C354.41 19.957 354.278 19.663 354.278 19.309C354.278 18.991 354.38 18.733 354.584 18.535C354.794 18.337 355.085 18.169 355.457 18.031C355.799 17.917 356.21 17.818 356.69 17.734C357.17 17.644 357.797 17.539 358.571 17.419C358.565 17.647 358.55 17.902 358.526 18.184C358.502 18.46 358.445 18.709 358.355 18.931C358.283 19.153 358.142 19.39 357.932 19.642C357.728 19.894 357.452 20.107 357.104 20.281C356.756 20.455 356.336 20.542 355.844 20.542ZM363.245 22H365.414V8.77H363.245V22ZM370.828 22.27C371.602 22.27 372.259 22.144 372.799 21.892C373.345 21.634 373.825 21.235 374.239 20.695V22H376.138V16.033C376.138 15.613 376.12 15.226 376.084 14.872C376.048 14.512 375.943 14.161 375.769 13.819C375.451 13.177 374.962 12.715 374.302 12.433C373.648 12.151 372.889 12.01 372.025 12.01C370.885 12.01 369.976 12.259 369.298 12.757C368.62 13.255 368.161 13.915 367.921 14.737L369.901 15.358C370.063 14.86 370.348 14.509 370.756 14.305C371.164 14.101 371.587 13.999 372.025 13.999C372.685 13.999 373.171 14.134 373.483 14.404C373.795 14.668 373.972 15.079 374.014 15.637C373.162 15.763 372.37 15.886 371.638 16.006C370.912 16.12 370.294 16.261 369.784 16.429C369.016 16.693 368.455 17.068 368.101 17.554C367.747 18.034 367.57 18.628 367.57 19.336C367.57 19.87 367.693 20.359 367.939 20.803C368.191 21.247 368.56 21.604 369.046 21.874C369.532 22.138 370.126 22.27 370.828 22.27ZM371.26 20.542C370.75 20.542 370.36 20.425 370.09 20.191C369.826 19.957 369.694 19.663 369.694 19.309C369.694 18.991 369.796 18.733 370 18.535C370.21 18.337 370.501 18.169 370.873 18.031C371.215 17.917 371.626 17.818 372.106 17.734C372.586 17.644 373.213 17.539 373.987 17.419C373.981 17.647 373.966 17.902 373.942 18.184C373.918 18.46 373.861 18.709 373.771 18.931C373.699 19.153 373.558 19.39 373.348 19.642C373.144 19.894 372.868 20.107 372.52 20.281C372.172 20.455 371.752 20.542 371.26 20.542ZM378.481 22H380.659V17.059C380.659 16.495 380.761 15.994 380.965 15.556C381.175 15.118 381.502 14.779 381.946 14.539C382.246 14.365 382.582 14.263 382.954 14.233C383.326 14.197 383.659 14.221 383.953 14.305V12.28C383.515 12.214 383.065 12.223 382.603 12.307C382.141 12.385 381.73 12.547 381.37 12.793C381.166 12.919 380.983 13.072 380.821 13.252C380.659 13.426 380.518 13.621 380.398 13.837V12.28H378.481V22ZM385.85 22H388.019V12.28H385.85V22ZM400.673 7.537H402.653V5.557H400.673V7.537ZM396.956 7.537H398.936V5.557H396.956V7.537ZM399.8 22.27C401.096 22.27 402.206 21.988 403.13 21.424C404.06 20.854 404.771 20.062 405.263 19.048C405.761 18.034 406.01 16.858 406.01 15.52C406.01 14.176 405.761 13 405.263 11.992C404.771 10.978 404.06 10.189 403.13 9.625C402.206 9.055 401.096 8.77 399.8 8.77C398.51 8.77 397.4 9.055 396.47 9.625C395.546 10.189 394.835 10.978 394.337 11.992C393.845 13 393.599 14.176 393.599 15.52C393.599 16.858 393.845 18.034 394.337 19.048C394.835 20.062 395.546 20.854 396.47 21.424C397.4 21.988 398.51 22.27 399.8 22.27ZM399.8 20.227C398.498 20.209 397.52 19.774 396.866 18.922C396.212 18.07 395.888 16.936 395.894 15.52C395.9 14.572 396.047 13.744 396.335 13.036C396.623 12.328 397.055 11.779 397.631 11.389C398.207 10.993 398.93 10.801 399.8 10.813C401.108 10.831 402.086 11.266 402.734 12.118C403.388 12.97 403.715 14.104 403.715 15.52C403.715 16.462 403.568 17.29 403.274 18.004C402.986 18.712 402.551 19.261 401.969 19.651C401.393 20.041 400.67 20.233 399.8 20.227ZM407.783 22H409.979V17.005C409.979 16.219 410.09 15.613 410.312 15.187C410.54 14.755 410.828 14.458 411.176 14.296C411.53 14.128 411.89 14.044 412.256 14.044C412.772 14.044 413.183 14.158 413.489 14.386C413.795 14.608 414.02 14.893 414.164 15.241C414.314 15.583 414.41 15.94 414.452 16.312C414.5 16.684 414.524 17.02 414.524 17.32V22H416.72V16.573C416.72 16.345 416.699 16.042 416.657 15.664C416.621 15.286 416.537 14.887 416.405 14.467C416.273 14.047 416.069 13.651 415.793 13.279C415.517 12.901 415.142 12.595 414.668 12.361C414.2 12.121 413.609 12.001 412.895 12.001C412.193 12.001 411.575 12.124 411.041 12.37C410.513 12.61 410.072 12.94 409.718 13.36V12.28H407.783V22ZM423.131 22.27C424.217 22.27 425.135 22.006 425.885 21.478C426.635 20.944 427.16 20.182 427.46 19.192L425.246 18.697C425.078 19.195 424.826 19.576 424.49 19.84C424.16 20.104 423.707 20.236 423.131 20.236C422.315 20.236 421.7 19.951 421.286 19.381C420.878 18.811 420.671 18.064 420.665 17.14C420.671 16.246 420.869 15.508 421.259 14.926C421.655 14.338 422.279 14.044 423.131 14.044C423.629 14.044 424.073 14.191 424.463 14.485C424.853 14.773 425.132 15.178 425.3 15.7L427.46 15.115C427.232 14.155 426.734 13.399 425.966 12.847C425.198 12.289 424.262 12.01 423.158 12.01C422.174 12.01 421.325 12.232 420.611 12.676C419.897 13.114 419.345 13.72 418.955 14.494C418.571 15.262 418.376 16.144 418.37 17.14C418.376 18.118 418.565 18.994 418.937 19.768C419.315 20.542 419.858 21.154 420.566 21.604C421.274 22.048 422.129 22.27 423.131 22.27ZM433.419 22.27C434.355 22.27 435.21 22.03 435.984 21.55C436.764 21.064 437.34 20.38 437.712 19.498L435.57 18.85C435.138 19.774 434.379 20.236 433.293 20.236C432.555 20.236 431.973 20.023 431.547 19.597C431.121 19.165 430.866 18.547 430.782 17.743H437.82C437.904 16.573 437.775 15.559 437.433 14.701C437.091 13.843 436.566 13.18 435.858 12.712C435.156 12.244 434.301 12.01 433.293 12.01C432.339 12.01 431.499 12.226 430.773 12.658C430.047 13.084 429.48 13.69 429.072 14.476C428.664 15.262 428.46 16.186 428.46 17.248C428.46 18.232 428.667 19.102 429.081 19.858C429.501 20.614 430.083 21.205 430.827 21.631C431.571 22.057 432.435 22.27 433.419 22.27ZM433.383 13.909C434.055 13.909 434.571 14.086 434.931 14.44C435.297 14.788 435.528 15.343 435.624 16.105H430.836C431.094 14.641 431.943 13.909 433.383 13.909ZM443.725 22.27C444.301 22.27 444.82 22.183 445.282 22.009C445.744 21.835 446.149 21.592 446.497 21.28V22H448.414V9.04H446.227V12.757C445.903 12.517 445.54 12.334 445.138 12.208C444.736 12.076 444.292 12.01 443.806 12.01C442.888 12.01 442.09 12.232 441.412 12.676C440.74 13.12 440.218 13.729 439.846 14.503C439.474 15.277 439.288 16.156 439.288 17.14C439.288 18.112 439.471 18.985 439.837 19.759C440.203 20.533 440.719 21.145 441.385 21.595C442.051 22.045 442.831 22.27 443.725 22.27ZM444.058 20.326C443.494 20.326 443.029 20.185 442.663 19.903C442.297 19.615 442.024 19.231 441.844 18.751C441.67 18.271 441.583 17.734 441.583 17.14C441.583 16.552 441.673 16.018 441.853 15.538C442.039 15.052 442.318 14.668 442.69 14.386C443.068 14.098 443.548 13.954 444.13 13.954C444.958 13.954 445.558 14.248 445.93 14.836C446.308 15.424 446.497 16.192 446.497 17.14C446.497 18.082 446.308 18.85 445.93 19.444C445.558 20.032 444.934 20.326 444.058 20.326ZM455.357 22.27C456.293 22.27 457.148 22.03 457.922 21.55C458.702 21.064 459.278 20.38 459.65 19.498L457.508 18.85C457.076 19.774 456.317 20.236 455.231 20.236C454.493 20.236 453.911 20.023 453.485 19.597C453.059 19.165 452.804 18.547 452.72 17.743H459.758C459.842 16.573 459.713 15.559 459.371 14.701C459.029 13.843 458.504 13.18 457.796 12.712C457.094 12.244 456.239 12.01 455.231 12.01C454.277 12.01 453.437 12.226 452.711 12.658C451.985 13.084 451.418 13.69 451.01 14.476C450.602 15.262 450.398 16.186 450.398 17.248C450.398 18.232 450.605 19.102 451.019 19.858C451.439 20.614 452.021 21.205 452.765 21.631C453.509 22.057 454.373 22.27 455.357 22.27ZM455.321 13.909C455.993 13.909 456.509 14.086 456.869 14.44C457.235 14.788 457.466 15.343 457.562 16.105H452.774C453.032 14.641 453.881 13.909 455.321 13.909ZM461.484 22H463.68V17.005C463.68 16.219 463.791 15.613 464.013 15.187C464.241 14.755 464.529 14.458 464.877 14.296C465.231 14.128 465.591 14.044 465.957 14.044C466.473 14.044 466.884 14.158 467.19 14.386C467.496 14.608 467.721 14.893 467.865 15.241C468.015 15.583 468.111 15.94 468.153 16.312C468.201 16.684 468.225 17.02 468.225 17.32V22H470.421V16.573C470.421 16.345 470.4 16.042 470.358 15.664C470.322 15.286 470.238 14.887 470.106 14.467C469.974 14.047 469.77 13.651 469.494 13.279C469.218 12.901 468.843 12.595 468.369 12.361C467.901 12.121 467.31 12.001 466.596 12.001C465.894 12.001 465.276 12.124 464.742 12.37C464.214 12.61 463.773 12.94 463.419 13.36V12.28H461.484V22ZM274.26 53H279.921C281.199 53 282.168 52.646 282.828 51.938C283.488 51.23 283.818 50.3 283.818 49.148C283.818 48.494 283.656 47.9 283.332 47.366C283.014 46.832 282.543 46.433 281.919 46.169C282.321 45.929 282.636 45.59 282.864 45.152C283.098 44.708 283.215 44.192 283.215 43.604C283.215 43.022 283.077 42.458 282.801 41.912C282.531 41.366 282.114 40.919 281.55 40.571C280.992 40.217 280.275 40.04 279.399 40.04H274.26V53ZM276.456 45.215V42.065H279.372C279.888 42.065 280.29 42.215 280.578 42.515C280.866 42.815 281.01 43.19 281.01 43.64C281.01 44.156 280.851 44.549 280.533 44.819C280.221 45.083 279.834 45.215 279.372 45.215H276.456ZM276.456 50.957V47.24H279.714C280.32 47.24 280.791 47.417 281.127 47.771C281.463 48.125 281.631 48.563 281.631 49.085C281.631 49.661 281.442 50.117 281.064 50.453C280.692 50.789 280.221 50.957 279.651 50.957H276.456ZM290.034 53.27C290.97 53.27 291.825 53.03 292.599 52.55C293.379 52.064 293.955 51.38 294.327 50.498L292.185 49.85C291.753 50.774 290.994 51.236 289.908 51.236C289.17 51.236 288.588 51.023 288.162 50.597C287.736 50.165 287.481 49.547 287.397 48.743H294.435C294.519 47.573 294.39 46.559 294.048 45.701C293.706 44.843 293.181 44.18 292.473 43.712C291.771 43.244 290.916 43.01 289.908 43.01C288.954 43.01 288.114 43.226 287.388 43.658C286.662 44.084 286.095 44.69 285.687 45.476C285.279 46.262 285.075 47.186 285.075 48.248C285.075 49.232 285.282 50.102 285.696 50.858C286.116 51.614 286.698 52.205 287.442 52.631C288.186 53.057 289.05 53.27 290.034 53.27ZM289.998 44.909C290.67 44.909 291.186 45.086 291.546 45.44C291.912 45.788 292.143 46.343 292.239 47.105H287.451C287.709 45.641 288.558 44.909 289.998 44.909ZM296.624 53H298.793V39.77H296.624V53ZM301.669 41.804H303.838V39.815H301.669V41.804ZM301.669 53H303.838V43.28H301.669V53ZM306.533 53H308.711V48.059C308.711 47.495 308.813 46.994 309.017 46.556C309.227 46.118 309.554 45.779 309.998 45.539C310.298 45.365 310.634 45.263 311.006 45.233C311.378 45.197 311.711 45.221 312.005 45.305V43.28C311.567 43.214 311.117 43.223 310.655 43.307C310.193 43.385 309.782 43.547 309.422 43.793C309.218 43.919 309.035 44.072 308.873 44.252C308.711 44.426 308.57 44.621 308.45 44.837V43.28H306.533V53ZM313.903 53H316.072V39.77H313.903V53ZM318.948 41.804H321.117V39.815H318.948V41.804ZM318.948 53H321.117V43.28H318.948V53ZM325.091 57.32H327.125L332.543 43.28H330.374L327.737 50.237L325.019 43.28H322.76L326.693 52.928L325.091 57.32ZM337.826 53.27C338.798 53.27 339.647 53.054 340.373 52.622C341.099 52.184 341.663 51.581 342.065 50.813C342.473 50.039 342.677 49.148 342.677 48.14C342.677 47.138 342.476 46.253 342.074 45.485C341.672 44.711 341.108 44.105 340.382 43.667C339.656 43.229 338.804 43.01 337.826 43.01C336.872 43.01 336.032 43.226 335.306 43.658C334.58 44.09 334.013 44.69 333.605 45.458C333.197 46.226 332.993 47.12 332.993 48.14C332.993 49.142 333.191 50.03 333.587 50.804C333.989 51.572 334.553 52.175 335.279 52.613C336.005 53.051 336.854 53.27 337.826 53.27ZM337.826 51.236C336.992 51.236 336.359 50.957 335.927 50.399C335.501 49.835 335.288 49.082 335.288 48.14C335.288 47.222 335.492 46.478 335.9 45.908C336.314 45.332 336.956 45.044 337.826 45.044C338.678 45.044 339.317 45.326 339.743 45.89C340.169 46.448 340.382 47.198 340.382 48.14C340.382 49.052 340.169 49.796 339.743 50.372C339.323 50.948 338.684 51.236 337.826 51.236ZM344.66 53H346.838V48.059C346.838 47.495 346.94 46.994 347.144 46.556C347.354 46.118 347.681 45.779 348.125 45.539C348.425 45.365 348.761 45.263 349.133 45.233C349.505 45.197 349.838 45.221 350.132 45.305V43.28C349.694 43.214 349.244 43.223 348.782 43.307C348.32 43.385 347.909 43.547 347.549 43.793C347.345 43.919 347.162 44.072 347 44.252C346.838 44.426 346.697 44.621 346.577 44.837V43.28H344.66V53ZM355.495 53.279C356.197 53.279 356.812 53.159 357.34 52.919C357.874 52.673 358.318 52.34 358.672 51.92V53H360.589V43.28H358.411V48.275C358.411 49.061 358.297 49.67 358.069 50.102C357.847 50.528 357.562 50.825 357.214 50.993C356.866 51.155 356.506 51.236 356.134 51.236C355.618 51.236 355.207 51.125 354.901 50.903C354.595 50.675 354.367 50.39 354.217 50.048C354.073 49.7 353.977 49.34 353.929 48.968C353.887 48.596 353.866 48.26 353.866 47.96V43.28H351.67V48.707C351.67 48.935 351.688 49.238 351.724 49.616C351.766 49.994 351.853 50.393 351.985 50.813C352.117 51.233 352.321 51.632 352.597 52.01C352.873 52.382 353.245 52.688 353.713 52.928C354.187 53.162 354.781 53.279 355.495 53.279ZM362.217 53H370.524V51.101H365.61L370.74 43.586V43.28H362.739V45.179H367.365L362.217 52.703V53Z" fill="white"/>
<path d="M605.741 22.27C607.037 22.27 608.147 21.988 609.071 21.424C610.001 20.854 610.712 20.062 611.204 19.048C611.702 18.034 611.951 16.858 611.951 15.52C611.951 14.176 611.702 13 611.204 11.992C610.712 10.978 610.001 10.189 609.071 9.625C608.147 9.055 607.037 8.77 605.741 8.77C604.451 8.77 603.341 9.055 602.411 9.625C601.487 10.189 600.776 10.978 600.278 11.992C599.786 13 599.54 14.176 599.54 15.52C599.54 16.858 599.786 18.034 600.278 19.048C600.776 20.062 601.487 20.854 602.411 21.424C603.341 21.988 604.451 22.27 605.741 22.27ZM605.741 20.227C604.439 20.209 603.461 19.774 602.807 18.922C602.153 18.07 601.829 16.936 601.835 15.52C601.841 14.572 601.988 13.744 602.276 13.036C602.564 12.328 602.996 11.779 603.572 11.389C604.148 10.993 604.871 10.801 605.741 10.813C607.049 10.831 608.027 11.266 608.675 12.118C609.329 12.97 609.656 14.104 609.656 15.52C609.656 16.462 609.509 17.29 609.215 18.004C608.927 18.712 608.492 19.261 607.91 19.651C607.334 20.041 606.611 20.233 605.741 20.227ZM613.922 22H616.091V8.77H613.922V22ZM622.432 22.279C623.134 22.279 623.749 22.159 624.277 21.919C624.811 21.673 625.255 21.34 625.609 20.92V22H627.526V12.28H625.348V17.275C625.348 18.061 625.234 18.67 625.006 19.102C624.784 19.528 624.499 19.825 624.151 19.993C623.803 20.155 623.443 20.236 623.071 20.236C622.555 20.236 622.144 20.125 621.838 19.903C621.532 19.675 621.304 19.39 621.154 19.048C621.01 18.7 620.914 18.34 620.866 17.968C620.824 17.596 620.803 17.26 620.803 16.96V12.28H618.607V17.707C618.607 17.935 618.625 18.238 618.661 18.616C618.703 18.994 618.79 19.393 618.922 19.813C619.054 20.233 619.258 20.632 619.534 21.01C619.81 21.382 620.182 21.688 620.65 21.928C621.124 22.162 621.718 22.279 622.432 22.279ZM633.538 26.347C634.048 26.347 634.489 26.167 634.861 25.807C635.239 25.447 635.428 24.985 635.428 24.421C635.428 24.031 635.329 23.698 635.131 23.422C634.939 23.146 634.672 22.924 634.33 22.756L634.51 22.234C635.548 22.132 636.358 21.811 636.94 21.271C637.528 20.725 637.822 20.011 637.822 19.129C637.822 18.373 637.582 17.779 637.102 17.347C636.628 16.915 635.809 16.549 634.645 16.249C633.889 16.057 633.319 15.895 632.935 15.763C632.557 15.631 632.305 15.499 632.179 15.367C632.053 15.235 631.99 15.076 631.99 14.89C631.99 14.566 632.146 14.314 632.458 14.134C632.77 13.948 633.181 13.867 633.691 13.891C634.219 13.921 634.642 14.056 634.96 14.296C635.284 14.536 635.476 14.863 635.536 15.277L637.75 14.881C637.63 14.005 637.201 13.309 636.463 12.793C635.725 12.271 634.789 12.01 633.655 12.01C632.497 12.01 631.57 12.28 630.874 12.82C630.178 13.36 629.83 14.086 629.83 14.998C629.83 15.724 630.073 16.297 630.559 16.717C631.051 17.137 631.906 17.506 633.124 17.824C633.856 18.016 634.396 18.178 634.744 18.31C635.098 18.436 635.329 18.565 635.437 18.697C635.545 18.829 635.599 19.006 635.599 19.228C635.599 19.588 635.455 19.873 635.167 20.083C634.879 20.287 634.477 20.389 633.961 20.389C633.367 20.389 632.872 20.251 632.476 19.975C632.086 19.699 631.837 19.321 631.729 18.841L629.515 19.183C629.665 20.077 630.058 20.788 630.694 21.316C631.336 21.844 632.17 22.153 633.196 22.243L632.737 23.566C633.049 23.656 633.322 23.755 633.556 23.863C633.796 23.971 633.916 24.142 633.916 24.376C633.916 24.49 633.865 24.598 633.763 24.7C633.667 24.808 633.529 24.862 633.349 24.862C633.217 24.862 633.025 24.82 632.773 24.736L632.296 26.023C632.47 26.119 632.659 26.197 632.863 26.257C633.073 26.317 633.298 26.347 633.538 26.347ZM642.511 22.27C643.285 22.27 643.942 22.144 644.482 21.892C645.028 21.634 645.508 21.235 645.922 20.695V22H647.821V16.033C647.821 15.613 647.803 15.226 647.767 14.872C647.731 14.512 647.626 14.161 647.452 13.819C647.134 13.177 646.645 12.715 645.985 12.433C645.331 12.151 644.572 12.01 643.708 12.01C642.568 12.01 641.659 12.259 640.981 12.757C640.303 13.255 639.844 13.915 639.604 14.737L641.584 15.358C641.746 14.86 642.031 14.509 642.439 14.305C642.847 14.101 643.27 13.999 643.708 13.999C644.368 13.999 644.854 14.134 645.166 14.404C645.478 14.668 645.655 15.079 645.697 15.637C644.845 15.763 644.053 15.886 643.321 16.006C642.595 16.12 641.977 16.261 641.467 16.429C640.699 16.693 640.138 17.068 639.784 17.554C639.43 18.034 639.253 18.628 639.253 19.336C639.253 19.87 639.376 20.359 639.622 20.803C639.874 21.247 640.243 21.604 640.729 21.874C641.215 22.138 641.809 22.27 642.511 22.27ZM642.943 20.542C642.433 20.542 642.043 20.425 641.773 20.191C641.509 19.957 641.377 19.663 641.377 19.309C641.377 18.991 641.479 18.733 641.683 18.535C641.893 18.337 642.184 18.169 642.556 18.031C642.898 17.917 643.309 17.818 643.789 17.734C644.269 17.644 644.896 17.539 645.67 17.419C645.664 17.647 645.649 17.902 645.625 18.184C645.601 18.46 645.544 18.709 645.454 18.931C645.382 19.153 645.241 19.39 645.031 19.642C644.827 19.894 644.551 20.107 644.203 20.281C643.855 20.455 643.435 20.542 642.943 20.542ZM650.146 22H652.063V21.28C652.411 21.592 652.816 21.835 653.278 22.009C653.74 22.183 654.259 22.27 654.835 22.27C655.735 22.27 656.515 22.045 657.175 21.595C657.841 21.145 658.357 20.533 658.723 19.759C659.089 18.985 659.272 18.112 659.272 17.14C659.272 16.156 659.086 15.277 658.714 14.503C658.348 13.729 657.826 13.12 657.148 12.676C656.47 12.232 655.672 12.01 654.754 12.01C654.268 12.01 653.824 12.076 653.422 12.208C653.02 12.334 652.657 12.517 652.333 12.757V9.04H650.146V22ZM654.502 20.326C653.632 20.326 653.008 20.032 652.63 19.444C652.252 18.85 652.063 18.082 652.063 17.14C652.063 16.192 652.249 15.424 652.621 14.836C652.999 14.248 653.602 13.954 654.43 13.954C655.012 13.954 655.489 14.098 655.861 14.386C656.239 14.668 656.518 15.052 656.698 15.538C656.884 16.018 656.977 16.552 656.977 17.14C656.977 17.734 656.887 18.271 656.707 18.751C656.533 19.231 656.263 19.615 655.897 19.903C655.531 20.185 655.066 20.326 654.502 20.326ZM661.436 10.804H663.605V8.815H661.436V10.804ZM661.436 22H663.605V12.28H661.436V22ZM666.481 22H668.65V8.77H666.481V22ZM675.765 22.27C676.701 22.27 677.556 22.03 678.33 21.55C679.11 21.064 679.686 20.38 680.058 19.498L677.916 18.85C677.484 19.774 676.725 20.236 675.639 20.236C674.901 20.236 674.319 20.023 673.893 19.597C673.467 19.165 673.212 18.547 673.128 17.743H680.166C680.25 16.573 680.121 15.559 679.779 14.701C679.437 13.843 678.912 13.18 678.204 12.712C677.502 12.244 676.647 12.01 675.639 12.01C674.685 12.01 673.845 12.226 673.119 12.658C672.393 13.084 671.826 13.69 671.418 14.476C671.01 15.262 670.806 16.186 670.806 17.248C670.806 18.232 671.013 19.102 671.427 19.858C671.847 20.614 672.429 21.205 673.173 21.631C673.917 22.057 674.781 22.27 675.765 22.27ZM675.729 13.909C676.401 13.909 676.917 14.086 677.277 14.44C677.643 14.788 677.874 15.343 677.97 16.105H673.182C673.44 14.641 674.289 13.909 675.729 13.909ZM686.395 22.27C687.481 22.27 688.399 22.006 689.149 21.478C689.899 20.944 690.424 20.182 690.724 19.192L688.51 18.697C688.342 19.195 688.09 19.576 687.754 19.84C687.424 20.104 686.971 20.236 686.395 20.236C685.579 20.236 684.964 19.951 684.55 19.381C684.142 18.811 683.935 18.064 683.929 17.14C683.935 16.246 684.133 15.508 684.523 14.926C684.919 14.338 685.543 14.044 686.395 14.044C686.893 14.044 687.337 14.191 687.727 14.485C688.117 14.773 688.396 15.178 688.564 15.7L690.724 15.115C690.496 14.155 689.998 13.399 689.23 12.847C688.462 12.289 687.526 12.01 686.422 12.01C685.438 12.01 684.589 12.232 683.875 12.676C683.161 13.114 682.609 13.72 682.219 14.494C681.835 15.262 681.64 16.144 681.634 17.14C681.64 18.118 681.829 18.994 682.201 19.768C682.579 20.542 683.122 21.154 683.83 21.604C684.538 22.048 685.393 22.27 686.395 22.27ZM696.683 22.27C697.619 22.27 698.474 22.03 699.248 21.55C700.028 21.064 700.604 20.38 700.976 19.498L698.834 18.85C698.402 19.774 697.643 20.236 696.557 20.236C695.819 20.236 695.237 20.023 694.811 19.597C694.385 19.165 694.13 18.547 694.046 17.743H701.084C701.168 16.573 701.039 15.559 700.697 14.701C700.355 13.843 699.83 13.18 699.122 12.712C698.42 12.244 697.565 12.01 696.557 12.01C695.603 12.01 694.763 12.226 694.037 12.658C693.311 13.084 692.744 13.69 692.336 14.476C691.928 15.262 691.724 16.186 691.724 17.248C691.724 18.232 691.931 19.102 692.345 19.858C692.765 20.614 693.347 21.205 694.091 21.631C694.835 22.057 695.699 22.27 696.683 22.27ZM696.647 13.909C697.319 13.909 697.835 14.086 698.195 14.44C698.561 14.788 698.792 15.343 698.888 16.105H694.1C694.358 14.641 695.207 13.909 696.647 13.909ZM703.074 22H705.288V17.32L709.005 22H711.876L707.781 17.14L711.552 12.28H708.843L705.288 16.96V9.04H703.092L703.074 22ZM716.381 22H718.55V17.473H721.628L723.824 22H726.281L723.887 17.086C724.625 16.756 725.174 16.255 725.534 15.583C725.894 14.911 726.074 14.137 726.074 13.261C726.074 12.187 725.804 11.272 725.264 10.516C724.73 9.754 723.899 9.286 722.771 9.112C722.603 9.082 722.42 9.064 722.222 9.058C722.024 9.046 721.862 9.04 721.736 9.04H716.381V22ZM718.55 15.448V11.074H721.646C721.766 11.074 721.901 11.08 722.051 11.092C722.201 11.104 722.339 11.125 722.465 11.155C722.825 11.245 723.107 11.407 723.311 11.641C723.521 11.869 723.668 12.127 723.752 12.415C723.842 12.703 723.887 12.985 723.887 13.261C723.887 13.537 723.842 13.819 723.752 14.107C723.668 14.395 723.521 14.653 723.311 14.881C723.107 15.109 722.825 15.268 722.465 15.358C722.339 15.394 722.201 15.418 722.051 15.43C721.901 15.442 721.766 15.448 721.646 15.448H718.55ZM728.444 10.804H730.613V8.815H728.444V10.804ZM728.444 22H730.613V12.28H728.444V22ZM737.062 22.27C738.316 22.27 739.297 21.991 740.005 21.433C740.719 20.875 741.076 20.107 741.076 19.129C741.076 18.373 740.836 17.779 740.356 17.347C739.882 16.915 739.063 16.549 737.899 16.249C737.143 16.057 736.573 15.895 736.189 15.763C735.811 15.631 735.559 15.499 735.433 15.367C735.307 15.235 735.244 15.076 735.244 14.89C735.244 14.566 735.4 14.314 735.712 14.134C736.024 13.948 736.435 13.867 736.945 13.891C737.473 13.921 737.896 14.056 738.214 14.296C738.538 14.536 738.73 14.863 738.79 15.277L741.004 14.881C740.884 14.005 740.455 13.309 739.717 12.793C738.979 12.271 738.043 12.01 736.909 12.01C735.751 12.01 734.824 12.28 734.128 12.82C733.432 13.36 733.084 14.086 733.084 14.998C733.084 15.724 733.327 16.297 733.813 16.717C734.305 17.137 735.16 17.506 736.378 17.824C737.11 18.016 737.65 18.178 737.998 18.31C738.352 18.436 738.583 18.565 738.691 18.697C738.799 18.829 738.853 19.006 738.853 19.228C738.853 19.588 738.709 19.873 738.421 20.083C738.133 20.287 737.731 20.389 737.215 20.389C736.621 20.389 736.126 20.251 735.73 19.975C735.34 19.699 735.091 19.321 734.983 18.841L732.769 19.183C732.931 20.161 733.387 20.92 734.137 21.46C734.887 22 735.862 22.27 737.062 22.27ZM743.029 22H745.243V17.32L748.96 22H751.831L747.736 17.14L751.507 12.28H748.798L745.243 16.96V9.04H743.047L743.029 22ZM752.913 22H755.082V8.77H752.913V22ZM762.197 22.27C763.133 22.27 763.988 22.03 764.762 21.55C765.542 21.064 766.118 20.38 766.49 19.498L764.348 18.85C763.916 19.774 763.157 20.236 762.071 20.236C761.333 20.236 760.751 20.023 760.325 19.597C759.899 19.165 759.644 18.547 759.56 17.743H766.598C766.682 16.573 766.553 15.559 766.211 14.701C765.869 13.843 765.344 13.18 764.636 12.712C763.934 12.244 763.079 12.01 762.071 12.01C761.117 12.01 760.277 12.226 759.551 12.658C758.825 13.084 758.258 13.69 757.85 14.476C757.442 15.262 757.238 16.186 757.238 17.248C757.238 18.232 757.445 19.102 757.859 19.858C758.279 20.614 758.861 21.205 759.605 21.631C760.349 22.057 761.213 22.27 762.197 22.27ZM762.161 13.909C762.833 13.909 763.349 14.086 763.709 14.44C764.075 14.788 764.306 15.343 764.402 16.105H759.614C759.872 14.641 760.721 13.909 762.161 13.909ZM768.606 22H770.784V17.059C770.784 16.495 770.886 15.994 771.09 15.556C771.3 15.118 771.627 14.779 772.071 14.539C772.371 14.365 772.707 14.263 773.079 14.233C773.451 14.197 773.784 14.221 774.078 14.305V12.28C773.64 12.214 773.19 12.223 772.728 12.307C772.266 12.385 771.855 12.547 771.495 12.793C771.291 12.919 771.108 13.072 770.946 13.252C770.784 13.426 770.643 13.621 770.523 13.837V12.28H768.606V22ZM775.975 10.804H778.144V8.815H775.975V10.804ZM775.975 22H778.144V12.28H775.975V22ZM606.614 38.537H608.594V36.557H606.614V38.537ZM602.897 38.537H604.877V36.557H602.897V38.537ZM605.741 53.27C607.037 53.27 608.147 52.988 609.071 52.424C610.001 51.854 610.712 51.062 611.204 50.048C611.702 49.034 611.951 47.858 611.951 46.52C611.951 45.176 611.702 44 611.204 42.992C610.712 41.978 610.001 41.189 609.071 40.625C608.147 40.055 607.037 39.77 605.741 39.77C604.451 39.77 603.341 40.055 602.411 40.625C601.487 41.189 600.776 41.978 600.278 42.992C599.786 44 599.54 45.176 599.54 46.52C599.54 47.858 599.786 49.034 600.278 50.048C600.776 51.062 601.487 51.854 602.411 52.424C603.341 52.988 604.451 53.27 605.741 53.27ZM605.741 51.227C604.439 51.209 603.461 50.774 602.807 49.922C602.153 49.07 601.829 47.936 601.835 46.52C601.841 45.572 601.988 44.744 602.276 44.036C602.564 43.328 602.996 42.779 603.572 42.389C604.148 41.993 604.871 41.801 605.741 41.813C607.049 41.831 608.027 42.266 608.675 43.118C609.329 43.97 609.656 45.104 609.656 46.52C609.656 47.462 609.509 48.29 609.215 49.004C608.927 49.712 608.492 50.261 607.91 50.651C607.334 51.041 606.611 51.233 605.741 51.227ZM613.724 53H615.92V48.005C615.92 47.219 616.031 46.613 616.253 46.187C616.481 45.755 616.769 45.458 617.117 45.296C617.471 45.128 617.831 45.044 618.197 45.044C618.713 45.044 619.124 45.158 619.43 45.386C619.736 45.608 619.961 45.893 620.105 46.241C620.255 46.583 620.351 46.94 620.393 47.312C620.441 47.684 620.465 48.02 620.465 48.32V53H622.661V47.573C622.661 47.345 622.64 47.042 622.598 46.664C622.562 46.286 622.478 45.887 622.346 45.467C622.214 45.047 622.01 44.651 621.734 44.279C621.458 43.901 621.083 43.595 620.609 43.361C620.141 43.121 619.55 43.001 618.836 43.001C618.134 43.001 617.516 43.124 616.982 43.37C616.454 43.61 616.013 43.94 615.659 44.36V43.28H613.724V53ZM625.19 53H627.359V39.77H625.19V53ZM635.203 41.777H637.183V39.797H635.203V41.777ZM631.486 41.777H633.466V39.797H631.486V41.777ZM633.7 53.279C634.402 53.279 635.017 53.159 635.545 52.919C636.079 52.673 636.523 52.34 636.877 51.92V53H638.794V43.28H636.616V48.275C636.616 49.061 636.502 49.67 636.274 50.102C636.052 50.528 635.767 50.825 635.419 50.993C635.071 51.155 634.711 51.236 634.339 51.236C633.823 51.236 633.412 51.125 633.106 50.903C632.8 50.675 632.572 50.39 632.422 50.048C632.278 49.7 632.182 49.34 632.134 48.968C632.092 48.596 632.071 48.26 632.071 47.96V43.28H629.875V48.707C629.875 48.935 629.893 49.238 629.929 49.616C629.971 49.994 630.058 50.393 630.19 50.813C630.322 51.233 630.526 51.632 630.802 52.01C631.078 52.382 631.45 52.688 631.918 52.928C632.392 53.162 632.986 53.279 633.7 53.279ZM642.601 57.32H644.635L650.053 43.28H647.884L645.247 50.237L642.529 43.28H640.27L644.203 52.928L642.601 57.32ZM655.336 53.27C656.308 53.27 657.157 53.054 657.883 52.622C658.609 52.184 659.173 51.581 659.575 50.813C659.983 50.039 660.187 49.148 660.187 48.14C660.187 47.138 659.986 46.253 659.584 45.485C659.182 44.711 658.618 44.105 657.892 43.667C657.166 43.229 656.314 43.01 655.336 43.01C654.382 43.01 653.542 43.226 652.816 43.658C652.09 44.09 651.523 44.69 651.115 45.458C650.707 46.226 650.503 47.12 650.503 48.14C650.503 49.142 650.701 50.03 651.097 50.804C651.499 51.572 652.063 52.175 652.789 52.613C653.515 53.051 654.364 53.27 655.336 53.27ZM655.336 51.236C654.502 51.236 653.869 50.957 653.437 50.399C653.011 49.835 652.798 49.082 652.798 48.14C652.798 47.222 653.002 46.478 653.41 45.908C653.824 45.332 654.466 45.044 655.336 45.044C656.188 45.044 656.827 45.326 657.253 45.89C657.679 46.448 657.892 47.198 657.892 48.14C657.892 49.052 657.679 49.796 657.253 50.372C656.833 50.948 656.194 51.236 655.336 51.236ZM662.17 53H664.348V48.059C664.348 47.495 664.45 46.994 664.654 46.556C664.864 46.118 665.191 45.779 665.635 45.539C665.935 45.365 666.271 45.263 666.643 45.233C667.015 45.197 667.348 45.221 667.642 45.305V43.28C667.204 43.214 666.754 43.223 666.292 43.307C665.83 43.385 665.419 43.547 665.059 43.793C664.855 43.919 664.672 44.072 664.51 44.252C664.348 44.426 664.207 44.621 664.087 44.837V43.28H662.17V53ZM673.005 53.279C673.707 53.279 674.322 53.159 674.85 52.919C675.384 52.673 675.828 52.34 676.182 51.92V53H678.099V43.28H675.921V48.275C675.921 49.061 675.807 49.67 675.579 50.102C675.357 50.528 675.072 50.825 674.724 50.993C674.376 51.155 674.016 51.236 673.644 51.236C673.128 51.236 672.717 51.125 672.411 50.903C672.105 50.675 671.877 50.39 671.727 50.048C671.583 49.7 671.487 49.34 671.439 48.968C671.397 48.596 671.376 48.26 671.376 47.96V43.28H669.18V48.707C669.18 48.935 669.198 49.238 669.234 49.616C669.276 49.994 669.363 50.393 669.495 50.813C669.627 51.233 669.831 51.632 670.107 52.01C670.383 52.382 670.755 52.688 671.223 52.928C671.697 53.162 672.291 53.279 673.005 53.279ZM679.727 53H688.034V51.101H683.12L688.25 43.586V43.28H680.249V45.179H684.875L679.727 52.703V53Z" fill="white"/>
<path d="M906.9 22H916.89V19.957H910.689L917.043 9.346V9.04H907.35V11.074H913.29L906.9 21.703V22ZM921.914 22.27C922.688 22.27 923.345 22.144 923.885 21.892C924.431 21.634 924.911 21.235 925.325 20.695V22H927.224V16.033C927.224 15.613 927.206 15.226 927.17 14.872C927.134 14.512 927.029 14.161 926.855 13.819C926.537 13.177 926.048 12.715 925.388 12.433C924.734 12.151 923.975 12.01 923.111 12.01C921.971 12.01 921.062 12.259 920.384 12.757C919.706 13.255 919.247 13.915 919.007 14.737L920.987 15.358C921.149 14.86 921.434 14.509 921.842 14.305C922.25 14.101 922.673 13.999 923.111 13.999C923.771 13.999 924.257 14.134 924.569 14.404C924.881 14.668 925.058 15.079 925.1 15.637C924.248 15.763 923.456 15.886 922.724 16.006C921.998 16.12 921.38 16.261 920.87 16.429C920.102 16.693 919.541 17.068 919.187 17.554C918.833 18.034 918.656 18.628 918.656 19.336C918.656 19.87 918.779 20.359 919.025 20.803C919.277 21.247 919.646 21.604 920.132 21.874C920.618 22.138 921.212 22.27 921.914 22.27ZM922.346 20.542C921.836 20.542 921.446 20.425 921.176 20.191C920.912 19.957 920.78 19.663 920.78 19.309C920.78 18.991 920.882 18.733 921.086 18.535C921.296 18.337 921.587 18.169 921.959 18.031C922.301 17.917 922.712 17.818 923.192 17.734C923.672 17.644 924.299 17.539 925.073 17.419C925.067 17.647 925.052 17.902 925.028 18.184C925.004 18.46 924.947 18.709 924.857 18.931C924.785 19.153 924.644 19.39 924.434 19.642C924.23 19.894 923.954 20.107 923.606 20.281C923.258 20.455 922.838 20.542 922.346 20.542ZM929.549 22H931.736V16.015C931.736 15.409 931.901 14.917 932.231 14.539C932.567 14.161 933.011 13.972 933.563 13.972C934.133 13.972 934.583 14.161 934.913 14.539C935.243 14.917 935.408 15.445 935.408 16.123V22H937.568V16.015C937.568 15.373 937.742 14.872 938.09 14.512C938.444 14.152 938.882 13.972 939.404 13.972C939.962 13.972 940.406 14.161 940.736 14.539C941.072 14.911 941.24 15.43 941.24 16.096V22H943.409V15.547C943.409 14.491 943.121 13.642 942.545 13C941.975 12.358 941.153 12.037 940.079 12.037C939.449 12.037 938.873 12.175 938.351 12.451C937.829 12.727 937.418 13.105 937.118 13.585C936.86 13.111 936.494 12.736 936.02 12.46C935.546 12.178 934.967 12.037 934.283 12.037C933.701 12.037 933.164 12.154 932.672 12.388C932.186 12.616 931.784 12.931 931.466 13.333V12.28H929.549V22ZM948.474 22.27C949.248 22.27 949.905 22.144 950.445 21.892C950.991 21.634 951.471 21.235 951.885 20.695V22H953.784V16.033C953.784 15.613 953.766 15.226 953.73 14.872C953.694 14.512 953.589 14.161 953.415 13.819C953.097 13.177 952.608 12.715 951.948 12.433C951.294 12.151 950.535 12.01 949.671 12.01C948.531 12.01 947.622 12.259 946.944 12.757C946.266 13.255 945.807 13.915 945.567 14.737L947.547 15.358C947.709 14.86 947.994 14.509 948.402 14.305C948.81 14.101 949.233 13.999 949.671 13.999C950.331 13.999 950.817 14.134 951.129 14.404C951.441 14.668 951.618 15.079 951.66 15.637C950.808 15.763 950.016 15.886 949.284 16.006C948.558 16.12 947.94 16.261 947.43 16.429C946.662 16.693 946.101 17.068 945.747 17.554C945.393 18.034 945.216 18.628 945.216 19.336C945.216 19.87 945.339 20.359 945.585 20.803C945.837 21.247 946.206 21.604 946.692 21.874C947.178 22.138 947.772 22.27 948.474 22.27ZM948.906 20.542C948.396 20.542 948.006 20.425 947.736 20.191C947.472 19.957 947.34 19.663 947.34 19.309C947.34 18.991 947.442 18.733 947.646 18.535C947.856 18.337 948.147 18.169 948.519 18.031C948.861 17.917 949.272 17.818 949.752 17.734C950.232 17.644 950.859 17.539 951.633 17.419C951.627 17.647 951.612 17.902 951.588 18.184C951.564 18.46 951.507 18.709 951.417 18.931C951.345 19.153 951.204 19.39 950.994 19.642C950.79 19.894 950.514 20.107 950.166 20.281C949.818 20.455 949.398 20.542 948.906 20.542ZM956.109 22H958.305V17.005C958.305 16.219 958.416 15.613 958.638 15.187C958.866 14.755 959.154 14.458 959.502 14.296C959.856 14.128 960.216 14.044 960.582 14.044C961.098 14.044 961.509 14.158 961.815 14.386C962.121 14.608 962.346 14.893 962.49 15.241C962.64 15.583 962.736 15.94 962.778 16.312C962.826 16.684 962.85 17.02 962.85 17.32V22H965.046V16.573C965.046 16.345 965.025 16.042 964.983 15.664C964.947 15.286 964.863 14.887 964.731 14.467C964.599 14.047 964.395 13.651 964.119 13.279C963.843 12.901 963.468 12.595 962.994 12.361C962.526 12.121 961.935 12.001 961.221 12.001C960.519 12.001 959.901 12.124 959.367 12.37C958.839 12.61 958.398 12.94 958.044 13.36V12.28H956.109V22ZM973.626 22H975.804L979.332 12.28H977.154L974.715 19.327L972.267 12.28H970.098L973.626 22ZM985.015 22.27C985.951 22.27 986.806 22.03 987.58 21.55C988.36 21.064 988.936 20.38 989.308 19.498L987.166 18.85C986.734 19.774 985.975 20.236 984.889 20.236C984.151 20.236 983.569 20.023 983.143 19.597C982.717 19.165 982.462 18.547 982.378 17.743H989.416C989.5 16.573 989.371 15.559 989.029 14.701C988.687 13.843 988.162 13.18 987.454 12.712C986.752 12.244 985.897 12.01 984.889 12.01C983.935 12.01 983.095 12.226 982.369 12.658C981.643 13.084 981.076 13.69 980.668 14.476C980.26 15.262 980.056 16.186 980.056 17.248C980.056 18.232 980.263 19.102 980.677 19.858C981.097 20.614 981.679 21.205 982.423 21.631C983.167 22.057 984.031 22.27 985.015 22.27ZM984.979 13.909C985.651 13.909 986.167 14.086 986.527 14.44C986.893 14.788 987.124 15.343 987.22 16.105H982.432C982.69 14.641 983.539 13.909 984.979 13.909ZM995.028 22H997.062V13.693L1001.03 22H1001.89L1005.87 13.693V22H1007.9V9.04H1005.94L1001.46 18.22L996.981 9.04H995.028V22ZM1013.14 22.27C1013.92 22.27 1014.58 22.144 1015.12 21.892C1015.66 21.634 1016.14 21.235 1016.56 20.695V22H1018.45V16.033C1018.45 15.613 1018.44 15.226 1018.4 14.872C1018.36 14.512 1018.26 14.161 1018.09 13.819C1017.77 13.177 1017.28 12.715 1016.62 12.433C1015.96 12.151 1015.21 12.01 1014.34 12.01C1013.2 12.01 1012.29 12.259 1011.61 12.757C1010.94 13.255 1010.48 13.915 1010.24 14.737L1012.22 15.358C1012.38 14.86 1012.66 14.509 1013.07 14.305C1013.48 14.101 1013.9 13.999 1014.34 13.999C1015 13.999 1015.49 14.134 1015.8 14.404C1016.11 14.668 1016.29 15.079 1016.33 15.637C1015.48 15.763 1014.69 15.886 1013.95 16.006C1013.23 16.12 1012.61 16.261 1012.1 16.429C1011.33 16.693 1010.77 17.068 1010.42 17.554C1010.06 18.034 1009.89 18.628 1009.89 19.336C1009.89 19.87 1010.01 20.359 1010.26 20.803C1010.51 21.247 1010.88 21.604 1011.36 21.874C1011.85 22.138 1012.44 22.27 1013.14 22.27ZM1013.58 20.542C1013.07 20.542 1012.68 20.425 1012.41 20.191C1012.14 19.957 1012.01 19.663 1012.01 19.309C1012.01 18.991 1012.11 18.733 1012.32 18.535C1012.53 18.337 1012.82 18.169 1013.19 18.031C1013.53 17.917 1013.94 17.818 1014.42 17.734C1014.9 17.644 1015.53 17.539 1016.3 17.419C1016.3 17.647 1016.28 17.902 1016.26 18.184C1016.23 18.46 1016.18 18.709 1016.09 18.931C1016.02 19.153 1015.87 19.39 1015.66 19.642C1015.46 19.894 1015.18 20.107 1014.84 20.281C1014.49 20.455 1014.07 20.542 1013.58 20.542ZM1020.98 22H1023.15V8.77H1020.98V22ZM1026.02 10.804H1028.19V8.815H1026.02V10.804ZM1026.02 22H1028.19V12.28H1026.02V22ZM1032.16 26.32H1034.2L1039.62 12.28H1037.45L1034.81 19.237L1032.09 12.28H1029.83L1033.77 21.928L1032.16 26.32ZM1045.03 22.27C1045.96 22.27 1046.82 22.03 1047.59 21.55C1048.37 21.064 1048.95 20.38 1049.32 19.498L1047.18 18.85C1046.75 19.774 1045.99 20.236 1044.9 20.236C1044.16 20.236 1043.58 20.023 1043.15 19.597C1042.73 19.165 1042.47 18.547 1042.39 17.743H1049.43C1049.51 16.573 1049.38 15.559 1049.04 14.701C1048.7 13.843 1048.17 13.18 1047.47 12.712C1046.76 12.244 1045.91 12.01 1044.9 12.01C1043.95 12.01 1043.11 12.226 1042.38 12.658C1041.65 13.084 1041.09 13.69 1040.68 14.476C1040.27 15.262 1040.07 16.186 1040.07 17.248C1040.07 18.232 1040.27 19.102 1040.69 19.858C1041.11 20.614 1041.69 21.205 1042.43 21.631C1043.18 22.057 1044.04 22.27 1045.03 22.27ZM1044.99 13.909C1045.66 13.909 1046.18 14.086 1046.54 14.44C1046.9 14.788 1047.14 15.343 1047.23 16.105H1042.44C1042.7 14.641 1043.55 13.909 1044.99 13.909ZM1057.13 22V20.182C1056.53 20.272 1055.99 20.296 1055.51 20.254C1055.04 20.212 1054.69 20.011 1054.48 19.651C1054.36 19.465 1054.3 19.225 1054.29 18.931C1054.28 18.631 1054.28 18.289 1054.28 17.905V13.981H1057.13V12.28H1054.28V9.58H1052.12V12.28H1050.36V13.981H1052.12V18.031C1052.12 18.589 1052.13 19.087 1052.14 19.525C1052.15 19.957 1052.27 20.383 1052.49 20.803C1052.74 21.265 1053.11 21.604 1053.6 21.82C1054.08 22.03 1054.63 22.141 1055.24 22.153C1055.86 22.171 1056.49 22.12 1057.13 22ZM1064.92 22V20.182C1064.31 20.272 1063.77 20.296 1063.3 20.254C1062.83 20.212 1062.48 20.011 1062.26 19.651C1062.15 19.465 1062.09 19.225 1062.08 18.931C1062.07 18.631 1062.07 18.289 1062.07 17.905V13.981H1064.92V12.28H1062.07V9.58H1059.91V12.28H1058.14V13.981H1059.91V18.031C1059.91 18.589 1059.91 19.087 1059.92 19.525C1059.94 19.957 1060.05 20.383 1060.28 20.803C1060.53 21.265 1060.9 21.604 1061.38 21.82C1061.87 22.03 1062.42 22.141 1063.03 22.153C1063.65 22.171 1064.28 22.12 1064.92 22ZM1070.94 22.27C1071.87 22.27 1072.73 22.03 1073.5 21.55C1074.28 21.064 1074.86 20.38 1075.23 19.498L1073.09 18.85C1072.66 19.774 1071.9 20.236 1070.81 20.236C1070.07 20.236 1069.49 20.023 1069.06 19.597C1068.64 19.165 1068.38 18.547 1068.3 17.743H1075.34C1075.42 16.573 1075.29 15.559 1074.95 14.701C1074.61 13.843 1074.08 13.18 1073.38 12.712C1072.67 12.244 1071.82 12.01 1070.81 12.01C1069.86 12.01 1069.02 12.226 1068.29 12.658C1067.56 13.084 1067 13.69 1066.59 14.476C1066.18 15.262 1065.98 16.186 1065.98 17.248C1065.98 18.232 1066.18 19.102 1066.6 19.858C1067.02 20.614 1067.6 21.205 1068.34 21.631C1069.09 22.057 1069.95 22.27 1070.94 22.27ZM1070.9 13.909C1071.57 13.909 1072.09 14.086 1072.45 14.44C1072.81 14.788 1073.05 15.343 1073.14 16.105H1068.35C1068.61 14.641 1069.46 13.909 1070.9 13.909ZM1077.06 22H1079.26V17.005C1079.26 16.219 1079.37 15.613 1079.59 15.187C1079.82 14.755 1080.11 14.458 1080.46 14.296C1080.81 14.128 1081.17 14.044 1081.54 14.044C1082.05 14.044 1082.46 14.158 1082.77 14.386C1083.08 14.608 1083.3 14.893 1083.45 15.241C1083.6 15.583 1083.69 15.94 1083.73 16.312C1083.78 16.684 1083.81 17.02 1083.81 17.32V22H1086V16.573C1086 16.345 1085.98 16.042 1085.94 15.664C1085.9 15.286 1085.82 14.887 1085.69 14.467C1085.55 14.047 1085.35 13.651 1085.07 13.279C1084.8 12.901 1084.42 12.595 1083.95 12.361C1083.48 12.121 1082.89 12.001 1082.18 12.001C1081.47 12.001 1080.86 12.124 1080.32 12.37C1079.79 12.61 1079.35 12.94 1079 13.36V12.28H1077.06V22ZM910.374 53H912.543V42.074H916.737V40.04H906.18V42.074H910.374V53ZM919.628 53.27C920.402 53.27 921.059 53.144 921.599 52.892C922.145 52.634 922.625 52.235 923.039 51.695V53H924.938V47.033C924.938 46.613 924.92 46.226 924.884 45.872C924.848 45.512 924.743 45.161 924.569 44.819C924.251 44.177 923.762 43.715 923.102 43.433C922.448 43.151 921.689 43.01 920.825 43.01C919.685 43.01 918.776 43.259 918.098 43.757C917.42 44.255 916.961 44.915 916.721 45.737L918.701 46.358C918.863 45.86 919.148 45.509 919.556 45.305C919.964 45.101 920.387 44.999 920.825 44.999C921.485 44.999 921.971 45.134 922.283 45.404C922.595 45.668 922.772 46.079 922.814 46.637C921.962 46.763 921.17 46.886 920.438 47.006C919.712 47.12 919.094 47.261 918.584 47.429C917.816 47.693 917.255 48.068 916.901 48.554C916.547 49.034 916.37 49.628 916.37 50.336C916.37 50.87 916.493 51.359 916.739 51.803C916.991 52.247 917.36 52.604 917.846 52.874C918.332 53.138 918.926 53.27 919.628 53.27ZM920.06 51.542C919.55 51.542 919.16 51.425 918.89 51.191C918.626 50.957 918.494 50.663 918.494 50.309C918.494 49.991 918.596 49.733 918.8 49.535C919.01 49.337 919.301 49.169 919.673 49.031C920.015 48.917 920.426 48.818 920.906 48.734C921.386 48.644 922.013 48.539 922.787 48.419C922.781 48.647 922.766 48.902 922.742 49.184C922.718 49.46 922.661 49.709 922.571 49.931C922.499 50.153 922.358 50.39 922.148 50.642C921.944 50.894 921.668 51.107 921.32 51.281C920.972 51.455 920.552 51.542 920.06 51.542ZM931.034 53.27C932.288 53.27 933.269 52.991 933.977 52.433C934.691 51.875 935.048 51.107 935.048 50.129C935.048 49.373 934.808 48.779 934.328 48.347C933.854 47.915 933.035 47.549 931.871 47.249C931.115 47.057 930.545 46.895 930.161 46.763C929.783 46.631 929.531 46.499 929.405 46.367C929.279 46.235 929.216 46.076 929.216 45.89C929.216 45.566 929.372 45.314 929.684 45.134C929.996 44.948 930.407 44.867 930.917 44.891C931.445 44.921 931.868 45.056 932.186 45.296C932.51 45.536 932.702 45.863 932.762 46.277L934.976 45.881C934.856 45.005 934.427 44.309 933.689 43.793C932.951 43.271 932.015 43.01 930.881 43.01C929.723 43.01 928.796 43.28 928.1 43.82C927.404 44.36 927.056 45.086 927.056 45.998C927.056 46.724 927.299 47.297 927.785 47.717C928.277 48.137 929.132 48.506 930.35 48.824C931.082 49.016 931.622 49.178 931.97 49.31C932.324 49.436 932.555 49.565 932.663 49.697C932.771 49.829 932.825 50.006 932.825 50.228C932.825 50.588 932.681 50.873 932.393 51.083C932.105 51.287 931.703 51.389 931.187 51.389C930.593 51.389 930.098 51.251 929.702 50.975C929.312 50.699 929.063 50.321 928.955 49.841L926.741 50.183C926.903 51.161 927.359 51.92 928.109 52.46C928.859 53 929.834 53.27 931.034 53.27ZM939.738 53.27C940.512 53.27 941.169 53.144 941.709 52.892C942.255 52.634 942.735 52.235 943.149 51.695V53H945.048V47.033C945.048 46.613 945.03 46.226 944.994 45.872C944.958 45.512 944.853 45.161 944.679 44.819C944.361 44.177 943.872 43.715 943.212 43.433C942.558 43.151 941.799 43.01 940.935 43.01C939.795 43.01 938.886 43.259 938.208 43.757C937.53 44.255 937.071 44.915 936.831 45.737L938.811 46.358C938.973 45.86 939.258 45.509 939.666 45.305C940.074 45.101 940.497 44.999 940.935 44.999C941.595 44.999 942.081 45.134 942.393 45.404C942.705 45.668 942.882 46.079 942.924 46.637C942.072 46.763 941.28 46.886 940.548 47.006C939.822 47.12 939.204 47.261 938.694 47.429C937.926 47.693 937.365 48.068 937.011 48.554C936.657 49.034 936.48 49.628 936.48 50.336C936.48 50.87 936.603 51.359 936.849 51.803C937.101 52.247 937.47 52.604 937.956 52.874C938.442 53.138 939.036 53.27 939.738 53.27ZM940.17 51.542C939.66 51.542 939.27 51.425 939 51.191C938.736 50.957 938.604 50.663 938.604 50.309C938.604 49.991 938.706 49.733 938.91 49.535C939.12 49.337 939.411 49.169 939.783 49.031C940.125 48.917 940.536 48.818 941.016 48.734C941.496 48.644 942.123 48.539 942.897 48.419C942.891 48.647 942.876 48.902 942.852 49.184C942.828 49.46 942.771 49.709 942.681 49.931C942.609 50.153 942.468 50.39 942.258 50.642C942.054 50.894 941.778 51.107 941.43 51.281C941.082 51.455 940.662 51.542 940.17 51.542ZM947.391 53H949.569V48.059C949.569 47.495 949.671 46.994 949.875 46.556C950.085 46.118 950.412 45.779 950.856 45.539C951.156 45.365 951.492 45.263 951.864 45.233C952.236 45.197 952.569 45.221 952.863 45.305V43.28C952.425 43.214 951.975 43.223 951.513 43.307C951.051 43.385 950.64 43.547 950.28 43.793C950.076 43.919 949.893 44.072 949.731 44.252C949.569 44.426 949.428 44.621 949.308 44.837V43.28H947.391V53ZM954.58 53H956.758V48.059C956.758 47.495 956.86 46.994 957.064 46.556C957.274 46.118 957.601 45.779 958.045 45.539C958.345 45.365 958.681 45.263 959.053 45.233C959.425 45.197 959.758 45.221 960.052 45.305V43.28C959.614 43.214 959.164 43.223 958.702 43.307C958.24 43.385 957.829 43.547 957.469 43.793C957.265 43.919 957.082 44.072 956.92 44.252C956.758 44.426 956.617 44.621 956.497 44.837V43.28H954.58V53ZM965.415 53.279C966.117 53.279 966.732 53.159 967.26 52.919C967.794 52.673 968.238 52.34 968.592 51.92V53H970.509V43.28H968.331V48.275C968.331 49.061 968.217 49.67 967.989 50.102C967.767 50.528 967.482 50.825 967.134 50.993C966.786 51.155 966.426 51.236 966.054 51.236C965.538 51.236 965.127 51.125 964.821 50.903C964.515 50.675 964.287 50.39 964.137 50.048C963.993 49.7 963.897 49.34 963.849 48.968C963.807 48.596 963.786 48.26 963.786 47.96V43.28H961.59V48.707C961.59 48.935 961.608 49.238 961.644 49.616C961.686 49.994 961.773 50.393 961.905 50.813C962.037 51.233 962.241 51.632 962.517 52.01C962.793 52.382 963.165 52.688 963.633 52.928C964.107 53.162 964.701 53.279 965.415 53.279ZM973.883 53H976.052V44.981H978.401V43.28H976.052V42.659C976.052 42.323 976.151 42.053 976.349 41.849C976.553 41.639 976.862 41.534 977.276 41.534H978.401V39.77H977.186C976.952 39.77 976.679 39.779 976.367 39.797C976.055 39.809 975.737 39.875 975.413 39.995C975.095 40.109 974.798 40.319 974.522 40.625C974.192 40.985 974.003 41.399 973.955 41.867C973.907 42.335 973.883 42.755 973.883 43.127V43.28H972.317V44.981H973.883V53ZM988.241 53.27C989.129 53.27 989.96 53.12 990.734 52.82C991.508 52.52 992.132 52.07 992.606 51.47C993.086 50.87 993.326 50.123 993.326 49.229C993.326 48.587 993.206 48.056 992.966 47.636C992.732 47.21 992.429 46.868 992.057 46.61C991.691 46.352 991.31 46.151 990.914 46.007C990.524 45.863 990.17 45.749 989.852 45.665L987.53 45.017C987.242 44.939 986.954 44.843 986.666 44.729C986.378 44.609 986.138 44.45 985.946 44.252C985.754 44.048 985.658 43.787 985.658 43.469C985.658 43.133 985.769 42.839 985.991 42.587C986.219 42.335 986.516 42.14 986.882 42.002C987.254 41.864 987.656 41.801 988.088 41.813C988.754 41.831 989.354 42.026 989.888 42.398C990.422 42.77 990.758 43.298 990.896 43.982L993.227 43.577C992.939 42.377 992.348 41.45 991.454 40.796C990.56 40.136 989.447 39.8 988.115 39.788C987.239 39.782 986.441 39.923 985.721 40.211C985.007 40.493 984.437 40.916 984.011 41.48C983.591 42.044 983.381 42.743 983.381 43.577C983.381 44.147 983.474 44.627 983.66 45.017C983.852 45.401 984.095 45.716 984.389 45.962C984.689 46.208 985.004 46.403 985.334 46.547C985.67 46.691 985.982 46.805 986.27 46.889L989.618 47.879C990.578 48.167 991.058 48.665 991.058 49.373C991.058 49.769 990.929 50.108 990.671 50.39C990.419 50.666 990.089 50.876 989.681 51.02C989.273 51.164 988.838 51.236 988.376 51.236C987.596 51.236 986.906 51.026 986.306 50.606C985.712 50.186 985.319 49.592 985.127 48.824L982.877 49.166C983.015 50.012 983.327 50.744 983.813 51.362C984.305 51.974 984.929 52.445 985.685 52.775C986.447 53.105 987.299 53.27 988.241 53.27ZM997.992 53.27C998.766 53.27 999.423 53.144 999.963 52.892C1000.51 52.634 1000.99 52.235 1001.4 51.695V53H1003.3V47.033C1003.3 46.613 1003.28 46.226 1003.25 45.872C1003.21 45.512 1003.11 45.161 1002.93 44.819C1002.61 44.177 1002.13 43.715 1001.47 43.433C1000.81 43.151 1000.05 43.01 999.189 43.01C998.049 43.01 997.14 43.259 996.462 43.757C995.784 44.255 995.325 44.915 995.085 45.737L997.065 46.358C997.227 45.86 997.512 45.509 997.92 45.305C998.328 45.101 998.751 44.999 999.189 44.999C999.849 44.999 1000.33 45.134 1000.65 45.404C1000.96 45.668 1001.14 46.079 1001.18 46.637C1000.33 46.763 999.534 46.886 998.802 47.006C998.076 47.12 997.458 47.261 996.948 47.429C996.18 47.693 995.619 48.068 995.265 48.554C994.911 49.034 994.734 49.628 994.734 50.336C994.734 50.87 994.857 51.359 995.103 51.803C995.355 52.247 995.724 52.604 996.21 52.874C996.696 53.138 997.29 53.27 997.992 53.27ZM998.424 51.542C997.914 51.542 997.524 51.425 997.254 51.191C996.99 50.957 996.858 50.663 996.858 50.309C996.858 49.991 996.96 49.733 997.164 49.535C997.374 49.337 997.665 49.169 998.037 49.031C998.379 48.917 998.79 48.818 999.27 48.734C999.75 48.644 1000.38 48.539 1001.15 48.419C1001.14 48.647 1001.13 48.902 1001.11 49.184C1001.08 49.46 1001.02 49.709 1000.93 49.931C1000.86 50.153 1000.72 50.39 1000.51 50.642C1000.31 50.894 1000.03 51.107 999.684 51.281C999.336 51.455 998.916 51.542 998.424 51.542ZM1010.47 42.182C1010.97 42.182 1011.43 42.059 1011.85 41.813C1012.26 41.567 1012.59 41.24 1012.83 40.832C1013.07 40.418 1013.2 39.959 1013.2 39.455H1011.5C1011.5 39.743 1011.4 39.989 1011.2 40.193C1011 40.391 1010.76 40.49 1010.47 40.49C1010.18 40.49 1009.93 40.391 1009.73 40.193C1009.53 39.989 1009.43 39.743 1009.43 39.455H1007.74C1007.74 39.959 1007.86 40.418 1008.1 40.832C1008.35 41.24 1008.68 41.567 1009.09 41.813C1009.51 42.059 1009.96 42.182 1010.47 42.182ZM1009.54 53.27C1010.05 53.27 1010.5 53.201 1010.92 53.063C1011.34 52.931 1011.71 52.745 1012.04 52.505V53.432C1012.06 54.122 1011.84 54.644 1011.4 54.998C1010.97 55.352 1010.42 55.529 1009.74 55.529C1009.36 55.529 1008.99 55.442 1008.65 55.268C1008.31 55.094 1008.05 54.833 1007.87 54.485L1005.87 55.475C1006.25 56.135 1006.78 56.651 1007.47 57.023C1008.17 57.401 1008.92 57.59 1009.73 57.59C1010.83 57.59 1011.77 57.365 1012.56 56.915C1013.35 56.471 1013.86 55.778 1014.08 54.836C1014.13 54.62 1014.16 54.401 1014.18 54.179C1014.2 53.957 1014.21 53.72 1014.21 53.468V43.28H1012.31V43.982C1011.97 43.67 1011.58 43.43 1011.13 43.262C1010.68 43.094 1010.17 43.01 1009.62 43.01C1008.7 43.01 1007.91 43.232 1007.23 43.676C1006.56 44.12 1006.03 44.729 1005.66 45.503C1005.29 46.277 1005.1 47.156 1005.1 48.14C1005.1 49.112 1005.29 49.985 1005.65 50.759C1006.02 51.533 1006.54 52.145 1007.2 52.595C1007.87 53.045 1008.65 53.27 1009.54 53.27ZM1009.87 51.326C1009.31 51.326 1008.85 51.185 1008.48 50.903C1008.11 50.615 1007.84 50.231 1007.66 49.751C1007.49 49.271 1007.4 48.734 1007.4 48.14C1007.4 47.552 1007.49 47.018 1007.67 46.538C1007.86 46.052 1008.13 45.668 1008.51 45.386C1008.88 45.098 1009.36 44.954 1009.95 44.954C1010.77 44.954 1011.37 45.248 1011.75 45.836C1012.12 46.424 1012.31 47.192 1012.31 48.14C1012.31 49.082 1012.12 49.85 1011.75 50.444C1011.37 51.032 1010.75 51.326 1009.87 51.326ZM1016.92 53H1019.09V39.77H1016.92V53ZM1021.96 53H1024.13V43.28H1021.96V53ZM1028.1 57.32H1030.14L1035.56 43.28H1033.39L1030.75 50.237L1028.03 43.28H1025.77L1029.71 52.928L1028.1 57.32ZM1040.84 53.27C1041.81 53.27 1042.66 53.054 1043.39 52.622C1044.11 52.184 1044.68 51.581 1045.08 50.813C1045.49 50.039 1045.69 49.148 1045.69 48.14C1045.69 47.138 1045.49 46.253 1045.09 45.485C1044.69 44.711 1044.12 44.105 1043.4 43.667C1042.67 43.229 1041.82 43.01 1040.84 43.01C1039.89 43.01 1039.05 43.226 1038.32 43.658C1037.59 44.09 1037.03 44.69 1036.62 45.458C1036.21 46.226 1036.01 47.12 1036.01 48.14C1036.01 49.142 1036.21 50.03 1036.6 50.804C1037 51.572 1037.57 52.175 1038.29 52.613C1039.02 53.051 1039.87 53.27 1040.84 53.27ZM1040.84 51.236C1040.01 51.236 1039.37 50.957 1038.94 50.399C1038.52 49.835 1038.3 49.082 1038.3 48.14C1038.3 47.222 1038.51 46.478 1038.91 45.908C1039.33 45.332 1039.97 45.044 1040.84 45.044C1041.69 45.044 1042.33 45.326 1042.76 45.89C1043.18 46.448 1043.4 47.198 1043.4 48.14C1043.4 49.052 1043.18 49.796 1042.76 50.372C1042.34 50.948 1041.7 51.236 1040.84 51.236ZM1047.67 53H1049.85V48.059C1049.85 47.495 1049.95 46.994 1050.16 46.556C1050.37 46.118 1050.7 45.779 1051.14 45.539C1051.44 45.365 1051.78 45.263 1052.15 45.233C1052.52 45.197 1052.85 45.221 1053.15 45.305V43.28C1052.71 43.214 1052.26 43.223 1051.8 43.307C1051.33 43.385 1050.92 43.547 1050.56 43.793C1050.36 43.919 1050.18 44.072 1050.01 44.252C1049.85 44.426 1049.71 44.621 1049.59 44.837V43.28H1047.67V53ZM1058.51 53.279C1059.21 53.279 1059.83 53.159 1060.35 52.919C1060.89 52.673 1061.33 52.34 1061.69 51.92V53H1063.6V43.28H1061.42V48.275C1061.42 49.061 1061.31 49.67 1061.08 50.102C1060.86 50.528 1060.58 50.825 1060.23 50.993C1059.88 51.155 1059.52 51.236 1059.15 51.236C1058.63 51.236 1058.22 51.125 1057.91 50.903C1057.61 50.675 1057.38 50.39 1057.23 50.048C1057.09 49.7 1056.99 49.34 1056.94 48.968C1056.9 48.596 1056.88 48.26 1056.88 47.96V43.28H1054.68V48.707C1054.68 48.935 1054.7 49.238 1054.74 49.616C1054.78 49.994 1054.87 50.393 1055 50.813C1055.13 51.233 1055.33 51.632 1055.61 52.01C1055.89 52.382 1056.26 52.688 1056.73 52.928C1057.2 53.162 1057.79 53.279 1058.51 53.279ZM1065.23 53H1073.54V51.101H1068.62L1073.75 43.586V43.28H1065.75V45.179H1070.38L1065.23 52.703V53Z" fill="white"/>
<g clip-path="url(#clip0_4_332)">
<path d="M208 43C214.627 43 220 37.6274 220 31C220 24.3726 214.627 19 208 19C201.373 19 196 24.3726 196 31C196 37.6274 201.373 43 208 43Z" stroke="white" stroke-width="2" stroke-linecap="round" stroke-linejoin="round"/>
<path d="M203 35L207 31L203 27" stroke="white" stroke-width="2" stroke-linecap="round" stroke-linejoin="round"/>
<path d="M210 35L214 31L210 27" stroke="white" stroke-width="2" stroke-linecap="round" stroke-linejoin="round"/>
</g>
<g clip-path="url(#clip1_4_332)">
<path d="M534 43C540.627 43 546 37.6274 546 31C546 24.3726 540.627 19 534 19C527.373 19 522 24.3726 522 31C522 37.6274 527.373 43 534 43Z" stroke="white" stroke-width="2" stroke-linecap="round" stroke-linejoin="round"/>
<path d="M529 35L533 31L529 27" stroke="white" stroke-width="2" stroke-linecap="round" stroke-linejoin="round"/>
<path d="M536 35L540 31L536 27" stroke="white" stroke-width="2" stroke-linecap="round" stroke-linejoin="round"/>
</g>
<g clip-path="url(#clip2_4_332)">
<path d="M841 43C847.627 43 853 37.6274 853 31C853 24.3726 847.627 19 841 19C834.373 19 829 24.3726 829 31C829 37.6274 834.373 43 841 43Z" stroke="white" stroke-width="2" stroke-linecap="round" stroke-linejoin="round"/>
<path d="M836 35L840 31L836 27" stroke="white" stroke-width="2" stroke-linecap="round" stroke-linejoin="round"/>
<path d="M843 35L847 31L843 27" stroke="white" stroke-width="2" stroke-linecap="round" stroke-linejoin="round"/>
</g>
<defs>
<clipPath id="clip0_4_332">
<rect width="32" height="32" fill="white" transform="translate(192 15)"/>
</clipPath>
<clipPath id="clip1_4_332">
<rect width="32" height="32" fill="white" transform="translate(518 15)"/>
</clipPath>
<clipPath id="clip2_4_332">
<rect width="32" height="32" fill="white" transform="translate(825 15)"/>
</clipPath>
</defs>
</svg>
